<?xml version="1.0" encoding="UTF-8" standalone="no"?>
<!-- Created with Inkscape (http://www.inkscape.org/) -->

<svg
   width="1024"
   height="1024"
   viewBox="0 0 1024 1024"
   version="1.1"
   id="svg29"
   inkscape:version="1.4 (e7c3feb100, 2024-10-09)"
   sodipodi:docname="icon.svg"
   xmlns:inkscape="http://www.inkscape.org/namespaces/inkscape"
   xmlns:sodipodi="http://sodipodi.sourceforge.net/DTD/sodipodi-0.dtd"
   xmlns:xlink="http://www.w3.org/1999/xlink"
   xmlns="http://www.w3.org/2000/svg"
   xmlns:svg="http://www.w3.org/2000/svg">
  <sodipodi:namedview
     id="namedview31"
     pagecolor="#cfcfcf"
     bordercolor="#666666"
     borderopacity="1.0"
     inkscape:pageshadow="2"
     inkscape:pageopacity="0"
     inkscape:pagecheckerboard="0"
     inkscape:document-units="px"
     showgrid="false"
     units="px"
     width="1024px"
     inkscape:snap-bbox="true"
     inkscape:bbox-nodes="true"
     inkscape:snap-bbox-midpoints="false"
     inkscape:zoom="0.125"
     inkscape:cx="3332"
     inkscape:cy="1936"
     inkscape:window-width="2560"
     inkscape:window-height="1011"
     inkscape:window-x="0"
     inkscape:window-y="32"
     inkscape:window-maximized="1"
     inkscape:current-layer="layer1"
     inkscape:snap-center="true"
     inkscape:showpageshadow="2"
     inkscape:deskcolor="#d1d1d1">
    <inkscape:grid
       type="xygrid"
       id="grid33"
       empspacing="8"
       color="#000000"
       opacity="0.03921569"
       empcolor="#000000"
       empopacity="0.07843137"
       units="px"
       spacingx="1"
       spacingy="1"
       originx="0"
       originy="0"
       visible="false" />
  </sodipodi:namedview>
  <defs
     id="defs26">
    <linearGradient
       id="swatch1"
       inkscape:swatch="solid"
       inkscape:label="Background">
      <stop
         style="stop-color:#1884ae;stop-opacity:1;"
         offset="0"
         id="stop1" />
    </linearGradient>
    <linearGradient
       id="linearGradient851"
       inkscape:swatch="solid">
      <stop
         style="stop-color:#1884ae;stop-opacity:0;"
         offset="0"
         id="stop849" />
    </linearGradient>
    <filter
       style="color-interpolation-filters:sRGB"
       inkscape:label="Drop Shadow"
       id="filter1414"
       x="-0.081818182"
       y="-0.043902439"
       width="1.1636364"
       height="1.0969512">
      <feFlood
         flood-opacity="0.501961"
         flood-color="rgb(0,0,0)"
         result="flood"
         id="feFlood1404" />
      <feComposite
         in="flood"
         in2="SourceGraphic"
         operator="in"
         result="composite1"
         id="feComposite1406" />
      <feGaussianBlur
         in="composite1"
         stdDeviation="12"
         result="blur"
         id="feGaussianBlur1408" />
      <feOffset
         dx="0"
         dy="6"
         result="offset"
         id="feOffset1410" />
      <feComposite
         in="SourceGraphic"
         in2="offset"
         operator="over"
         result="composite2"
         id="feComposite1412" />
    </filter>
    <linearGradient
       inkscape:collect="always"
       xlink:href="#linearGradient851"
       id="linearGradient853-3"
       x1="574.48816"
       y1="257.00787"
       x2="1088.5042"
       y2="257.00787"
       gradientUnits="userSpaceOnUse" />
    <linearGradient
       inkscape:collect="always"
       xlink:href="#linearGradient851"
       id="linearGradient950"
       gradientUnits="userSpaceOnUse"
       x1="574.48816"
       y1="257.00787"
       x2="1088.5042"
       y2="257.00787" />
    <filter
       style="color-interpolation-filters:sRGB"
       inkscape:label="Drop Shadow"
       id="filter1414-6"
       x="-0.081818182"
       y="-0.043902439"
       width="1.1636364"
       height="1.0969512">
      <feFlood
         flood-opacity="0.501961"
         flood-color="rgb(0,0,0)"
         result="flood"
         id="feFlood1404-7" />
      <feComposite
         in="flood"
         in2="SourceGraphic"
         operator="in"
         result="composite1"
         id="feComposite1406-5" />
      <feGaussianBlur
         in="composite1"
         stdDeviation="12"
         result="blur"
         id="feGaussianBlur1408-3" />
      <feOffset
         dx="0"
         dy="6"
         result="offset"
         id="feOffset1410-5" />
      <feComposite
         in="SourceGraphic"
         in2="offset"
         operator="over"
         result="composite2"
         id="feComposite1412-6" />
    </filter>
    <filter
       style="color-interpolation-filters:sRGB"
       inkscape:label="Drop Shadow"
       id="filter3"
       x="-0.081818182"
       y="-0.043902439"
       width="1.1636364"
       height="1.0969512">
      <feFlood
         flood-opacity="0.501961"
         flood-color="rgb(0,0,0)"
         result="flood"
         id="feFlood2" />
      <feComposite
         in="flood"
         in2="SourceGraphic"
         operator="in"
         result="composite1"
         id="feComposite2" />
      <feGaussianBlur
         in="composite1"
         stdDeviation="12"
         result="blur"
         id="feGaussianBlur2" />
      <feOffset
         dx="0"
         dy="6"
         result="offset"
         id="feOffset2" />
      <feComposite
         in="SourceGraphic"
         in2="offset"
         operator="over"
         result="composite2"
         id="feComposite3" />
    </filter>
    <linearGradient
       inkscape:collect="always"
       xlink:href="#swatch1"
       id="linearGradient1"
       x1="0"
       y1="512"
       x2="1024"
       y2="512"
       gradientUnits="userSpaceOnUse" />
    <linearGradient
       inkscape:collect="always"
       xlink:href="#swatch1"
       id="linearGradient2"
       gradientUnits="userSpaceOnUse"
       x1="0"
       y1="512"
       x2="1024"
       y2="512"
       gradientTransform="translate(-2144,1152)" />
    <linearGradient
       inkscape:collect="always"
       xlink:href="#swatch1"
       id="linearGradient5"
       gradientUnits="userSpaceOnUse"
       gradientTransform="translate(1088)"
       x1="0"
       y1="512"
       x2="1024"
       y2="512" />
  </defs>
  <g
     inkscape:label="Layer 1"
     inkscape:groupmode="layer"
     id="layer1">
    <g
       id="g1436"
       transform="translate(-2750.4882)"
       inkscape:export-filename="../src/assets/icon-foreground.png"
       inkscape:export-xdpi="96"
       inkscape:export-ydpi="96">
      <rect
         style="fill:url(#linearGradient950);fill-opacity:1;stroke:none;stroke-width:0.944882;-inkscape-stroke:none;stop-color:#000000"
         id="rect10"
         width="1024"
         height="1024"
         x="574.48816"
         y="0"
         rx="0"
         ry="0" />
      <path
         id="rect1856"
         style="opacity:1;fill:#ffffff;stroke-width:1.18286;-inkscape-stroke:none;filter:url(#filter1414);stop-color:#000000"
         d="m -544,192 c -35.46,0 -64,28.544 -64,64 v 48 h -12 c -6.65,0 -12,5.352 -12,12 0,6.648 5.35,12 12,12 h 12 v 80 h -12 c -6.65,0 -12,5.352 -12,12 0,6.648 5.35,12 12,12 h 12 v 76.50586 C -675.37996,534.80986 -719.81,599.664 -720,672 c 0,46.678 18.54078,91.44417 51.55078,124.45117 C -635.43922,829.45717 -590.68,848 -544,848 c 46.68,0 91.43922,-18.54283 124.44922,-51.54883 C -386.54078,763.44417 -368,718.678 -368,672 -368.02,599.517 -412.48,534.46052 -480,508.10352 V 432 h 12 c 6.65,0 12,-5.352 12,-12 0,-6.648 -5.35,-12 -12,-12 h -12 v -80 h 12 c 6.65,0 12,-5.352 12,-12 0,-6.648 -5.35,-12 -12,-12 h -12 v -48 c 0,-35.456 -28.54,-64 -64,-64 z m 0,24 c 22.16,0 40,17.84 40,40 v 60 104 105.4043 c 66.11,18.033 111.98,78.0707 112,146.5957 0,83.947 -68.05,152 -152,152 -83.95,0 -152,-68.053 -152,-152 0.08,-68.474 45.94004,-128.43998 112,-146.45898 V 420 316 256 c 0,-22.16 17.84,-40 40,-40 z m 0,160 c -8.86,0 -16,3.568 -16,8 v 161.57617 c -60.24607,7.59074 -106.32564,56.2883 -111.49414,115.84375 7.76224,-6.31816 17.78901,-11.95898 31.28125,-11.95898 19.80331,0 32.37065,12.18151 40.93945,20.8164 8.5689,8.6349 13.1406,13.72266 23.9043,13.72266 10.7637,0 15.33344,-5.08775 23.90234,-13.72266 8.5688,-8.6349 21.13616,-20.8164 40.93946,-20.8164 19.8034,0 32.37055,12.1815 40.93945,20.8164 8.5688,8.63491 13.13874,13.72266 23.90234,13.72266 10.7637,0 15.3355,-5.08776 23.9043,-13.72266 1.66534,-1.67816 3.53273,-3.49571 5.53711,-5.31836 C -419.85559,603.80215 -466.56437,553.31679 -528,545.57617 V 384 c 0,-4.432 -7.14,-8 -16,-8 z m -96.21289,297.46094 c -10.76367,0 -15.33349,5.08775 -23.90234,13.72265 -1.83438,1.84852 -3.88831,3.84643 -6.13477,5.85743 2.88307,17.42331 9.28881,33.64802 18.45508,47.9414 8.53116,-8.51381 20.70857,-19.52148 39.58203,-19.52148 19.8033,0 32.37065,12.18151 40.93945,20.8164 8.5689,8.6349 13.1406,13.72266 23.9043,13.72266 10.7637,0 15.33344,-5.08775 23.90234,-13.72266 8.5688,-8.6349 21.13616,-20.8164 40.93946,-20.8164 19.8034,0 32.37055,12.1815 40.93945,20.8164 1.04401,1.05208 1.81616,1.7054 2.75977,2.64844 9.38355,-13.50689 16.22579,-28.90084 19.85156,-45.50586 -7.03875,4.81378 -15.69381,8.58008 -26.70899,8.58008 -19.8033,0 -32.37065,-12.18151 -40.93945,-20.81641 -8.5689,-8.63489 -13.13864,-13.72265 -23.90234,-13.72265 -10.7636,0 -15.3354,5.08775 -23.9043,13.72265 -8.5688,8.63491 -21.1341,20.81641 -40.9375,20.81641 -19.8033,0 -32.37065,-12.1815 -40.93945,-20.81641 -8.5689,-8.6349 -13.14069,-13.72265 -23.9043,-13.72265 z m 28,72 c -10.7637,0 -15.33349,5.08775 -23.90234,13.72265 -0.24297,0.24484 -0.56844,0.53055 -0.82032,0.78125 C -613.60525,784.60468 -580.60953,800 -544,800 c 34.91421,0 66.54723,-13.99646 89.64062,-36.66406 -1.51761,-1.42382 -2.95773,-2.83437 -4.26562,-4.15235 -8.5689,-8.63489 -13.13864,-13.72265 -23.90234,-13.72265 -10.7636,0 -15.3354,5.08775 -23.9043,13.72265 -8.5688,8.63491 -21.1341,20.81641 -40.9375,20.81641 -19.8033,0 -32.37065,-12.1815 -40.93945,-20.81641 -8.5689,-8.6349 -13.1407,-13.72265 -23.9043,-13.72265 z"
         transform="matrix(1.0141667,0,0,1.0141667,1638.1949,-7.4091983)" />
    </g>
    <g
       id="g1723"
       inkscape:export-filename="../assets/icon-only.png"
       inkscape:export-xdpi="96"
       inkscape:export-ydpi="96">
      <rect
         style="fill:url(#linearGradient1);fill-opacity:1;stroke:none;stroke-width:0.944882;-inkscape-stroke:none;stop-color:#000000"
         id="rect1254"
         width="1024"
         height="1024"
         x="0"
         y="0"
         rx="96"
         ry="96" />
      <use
         x="0"
         y="0"
         xlink:href="#g1436"
         id="use1"
         transform="translate(2176)" />
    </g>
    <g
       id="g2"
       inkscape:export-filename="../assets/icon-background.png"
       inkscape:export-xdpi="96"
       inkscape:export-ydpi="96"
       transform="translate(1056,-64)">
      <rect
         style="fill:url(#linearGradient2);fill-opacity:1;stroke:none;stroke-width:0.944882;-inkscape-stroke:none;stop-color:#000000"
         id="rect1"
         width="1024"
         height="1024"
         x="-2144"
         y="1152"
         rx="0"
         ry="0" />
    </g>
    <g
       id="g5"
       inkscape:export-filename="../assets/icon-foreground.png"
       inkscape:export-xdpi="96"
       inkscape:export-ydpi="96">
      <use
         x="0"
         y="0"
         xlink:href="#g1436"
         id="use5"
         transform="translate(1088)"
         inkscape:export-filename="../src/src/assets/icon-foreground.png"
         inkscape:export-xdpi="96"
         inkscape:export-ydpi="96" />
    </g>
    <g
       id="g6"
       inkscape:export-filename="../assets/splash.png"
       inkscape:export-xdpi="96"
       inkscape:export-ydpi="96">
      <rect
         style="fill:url(#linearGradient5);fill-opacity:1;stroke:none;stroke-width:0.944882;-inkscape-stroke:none;stop-color:#000000"
         id="rect1-9"
         width="2732"
         height="2732"
         x="1088"
         y="0"
         rx="0"
         ry="0" />
      <use
         x="0"
         y="0"
         xlink:href="#g1436"
         id="use6"
         transform="translate(4118,854)" />
    </g>
    <use
       x="0"
       y="0"
       xlink:href="#g6"
       id="use7"
       transform="translate(2816)"
       inkscape:export-filename="../assets/splash-dark.png"
       inkscape:export-xdpi="96"
       inkscape:export-ydpi="96" />
  </g>
</svg>
