<svg width="320" height="320" version="1.1" viewBox="0 0 320 320" xmlns="http://www.w3.org/2000/svg">
 <defs>
  <clipPath id="clipPath2632">
   <rect x="152" y="16" width="16" height="272" rx="7.873" ry="8" opacity=".52439" stop-color="#000000" stroke-width=".94488" style="-inkscape-stroke:none"/>
  </clipPath>
 </defs>
 <rect x="152" y="120" width="16" height="168" rx="7.3648" ry="2" clip-path="url(#clipPath2632)" stop-color="#000000" stroke-width=".94488" style="-inkscape-stroke:none"/>
 <path d="m160 0c-13.296 0-24 10.704-24 24h-4c-2.216 0-4 1.784-4 4s1.784 4 4 4h4v26h-3c-1.108 0-2 0.892-2 2s0.892 2 2 2h3v26h-4c-2.216 0-4 1.784-4 4s1.784 4 4 4h4v26h-3c-1.108 0-2 0.892-2 2s0.892 2 2 2h3v26h-4c-2.216 0-4 1.784-4 4s1.784 4 4 4h4v26h-3c-1.108 0-2 0.892-2 2s0.892 2 2 2h3v6.8184a64 64 0 0 0-40 59.182 64 64 0 0 0 64 64 64 64 0 0 0 64-64 64 64 0 0 0-40-59.318v-6.6816h3c1.108 0 2-0.892 2-2s-0.892-2-2-2h-3v-26h4c2.216 0 4-1.784 4-4s-1.784-4-4-4h-4v-26h3c1.108 0 2-0.892 2-2s-0.892-2-2-2h-3v-26h4c2.216 0 4-1.784 4-4s-1.784-4-4-4h-4v-26h3c1.108 0 2-0.892 2-2s-0.892-2-2-2h-3v-26h4c2.216 0 4-1.784 4-4s-1.784-4-4-4h-4c0-13.296-10.704-24-24-24zm0 8c8.864 0 16 7.136 16 16v4 64 64 46.342a56 56 0 0 1 40 53.658 56 56 0 0 1-56 56 56 56 0 0 1-56-56 56 56 0 0 1 40-53.648v-46.352-64-64-4c0-8.864 7.136-16 16-16zm0 200a48 48 0 0 0-48 48 48 48 0 0 0 48 48 48 48 0 0 0 48-48 48 48 0 0 0-48-48z" stop-color="#000000" stroke-width="1.2598" style="-inkscape-stroke:none"/>
 <g fill="#000000" font-family="sans-serif" font-size="16px">
  <text x="194" y="34" style="line-height:1.25" xml:space="preserve"><tspan x="194" y="34">30</tspan></text>
  <text x="194" y="98" style="line-height:1.25" xml:space="preserve"><tspan x="194" y="98">20</tspan></text>
  <text x="194" y="162" style="line-height:1.25" xml:space="preserve"><tspan x="194" y="162">10</tspan></text>
  <g text-anchor="end">
   <text x="126" y="162" text-align="end" style="line-height:1.25" xml:space="preserve"><tspan x="126" y="162">10</tspan></text>
   <text x="126" y="98" text-align="end" style="line-height:1.25" xml:space="preserve"><tspan x="126" y="98">20</tspan></text>
   <text x="126" y="34" text-align="end" style="line-height:1.25" xml:space="preserve"><tspan x="126" y="34">30</tspan></text>
  </g>
 </g>
 <text x="160" y="272" fill="#ffffff" font-family="sans-serif" font-size="40px" text-align="center" text-anchor="middle" style="line-height:1.25" xml:space="preserve"><tspan x="160" y="272" fill="#ffffff" font-size="40px" text-align="center" text-anchor="middle">21.8</tspan></text>
</svg>
