<?xml version="1.0" encoding="UTF-8" standalone="no"?>
<!-- Created with Inkscape (http://www.inkscape.org/) -->

<svg
   width="320"
   height="320"
   viewBox="0 0 320 320"
   version="1.1"
   id="svg66618"
   inkscape:version="1.1.2 (0a00cf5339, 2022-02-04, custom)"
   sodipodi:docname="thermometer.svg"
   xmlns:inkscape="http://www.inkscape.org/namespaces/inkscape"
   xmlns:sodipodi="http://sodipodi.sourceforge.net/DTD/sodipodi-0.dtd"
   xmlns="http://www.w3.org/2000/svg"
   xmlns:svg="http://www.w3.org/2000/svg">
  <sodipodi:namedview
     id="namedview66620"
     pagecolor="#ffffff"
     bordercolor="#666666"
     borderopacity="1.0"
     inkscape:pageshadow="2"
     inkscape:pageopacity="0"
     inkscape:pagecheckerboard="0"
     inkscape:document-units="px"
     showgrid="true"
     units="px"
     inkscape:zoom="2.7828126"
     inkscape:cx="50.308813"
     inkscape:cy="207.70353"
     inkscape:window-width="2560"
     inkscape:window-height="1017"
     inkscape:window-x="-8"
     inkscape:window-y="-8"
     inkscape:window-maximized="1"
     inkscape:current-layer="layer1"
     inkscape:snap-bbox="true"
     inkscape:bbox-nodes="true"
     inkscape:snap-bbox-midpoints="true"
     width="320px"
     inkscape:snap-text-baseline="true">
    <inkscape:grid
       type="xygrid"
       id="grid66679"
       units="px"
       spacingx="1"
       spacingy="1"
       empspacing="8" />
  </sodipodi:namedview>
  <defs
     id="defs66615">
    <clipPath
       clipPathUnits="userSpaceOnUse"
       id="clipPath91510">
      <rect
         style="fill:#ffffff;fill-opacity:1;stroke-width:0.944882;-inkscape-stroke:none;stop-color:#000000"
         id="rect91512"
         width="48"
         height="288"
         x="136"
         y="16"
         rx="24"
         ry="24" />
    </clipPath>
    <clipPath
       clipPathUnits="userSpaceOnUse"
       id="clipPath2632">
      <rect
         style="opacity:0.52439;fill:#000000;stroke-width:0.944882;-inkscape-stroke:none;stop-color:#000000"
         id="rect2634"
         width="16"
         height="272"
         x="152"
         y="16"
         rx="7.872951"
         ry="8" />
    </clipPath>
  </defs>
  <g
     inkscape:label="Layer 1"
     inkscape:groupmode="layer"
     id="layer1">
    <rect
       style="opacity:1;fill:#000000;stroke-width:0.944882;-inkscape-stroke:none;stop-color:#000000"
       id="rect2496"
       width="16"
       height="168"
       x="152"
       y="120"
       rx="7.3647599"
       ry="2"
       clip-path="url(#clipPath2632)" />
    <path
       id="circle965"
       style="fill:#000000;stroke-width:1.25984;-inkscape-stroke:none;stop-color:#000000"
       d="M 160 0 C 146.704 0 136 10.704 136 24 L 132 24 C 129.784 24 128 25.784 128 28 C 128 30.216 129.784 32 132 32 L 136 32 L 136 58 L 133 58 C 131.892 58 131 58.892 131 60 C 131 61.108 131.892 62 133 62 L 136 62 L 136 88 L 132 88 C 129.784 88 128 89.784 128 92 C 128 94.216 129.784 96 132 96 L 136 96 L 136 122 L 133 122 C 131.892 122 131 122.892 131 124 C 131 125.108 131.892 126 133 126 L 136 126 L 136 152 L 132 152 C 129.784 152 128 153.784 128 156 C 128 158.216 129.784 160 132 160 L 136 160 L 136 186 L 133 186 C 131.892 186 131 186.892 131 188 C 131 189.108 131.892 190 133 190 L 136 190 L 136 196.81836 A 64 64 0 0 0 96 256 A 64 64 0 0 0 160 320 A 64 64 0 0 0 224 256 A 64 64 0 0 0 184 196.68164 L 184 190 L 187 190 C 188.108 190 189 189.108 189 188 C 189 186.892 188.108 186 187 186 L 184 186 L 184 160 L 188 160 C 190.216 160 192 158.216 192 156 C 192 153.784 190.216 152 188 152 L 184 152 L 184 126 L 187 126 C 188.108 126 189 125.108 189 124 C 189 122.892 188.108 122 187 122 L 184 122 L 184 96 L 188 96 C 190.216 96 192 94.216 192 92 C 192 89.784 190.216 88 188 88 L 184 88 L 184 62 L 187 62 C 188.108 62 189 61.108 189 60 C 189 58.892 188.108 58 187 58 L 184 58 L 184 32 L 188 32 C 190.216 32 192 30.216 192 28 C 192 25.784 190.216 24 188 24 L 184 24 C 184 10.704 173.296 0 160 0 z M 160 8 C 168.864 8 176 15.136 176 24 L 176 28 L 176 92 L 176 156 L 176 202.3418 A 56 56 0 0 1 216 256 A 56 56 0 0 1 160 312 A 56 56 0 0 1 104 256 A 56 56 0 0 1 144 202.35156 L 144 156 L 144 92 L 144 28 L 144 24 C 144 15.136 151.136 8 160 8 z M 160 208 A 48 48 0 0 0 112 256 A 48 48 0 0 0 160 304 A 48 48 0 0 0 208 256 A 48 48 0 0 0 160 208 z " />
    <text
       xml:space="preserve"
       style="font-style:normal;font-weight:normal;font-size:16px;line-height:1.25;font-family:sans-serif;fill:#000000;fill-opacity:1;stroke:none"
       x="194"
       y="34"
       id="text1812"><tspan
         sodipodi:role="line"
         id="tspan1810"
         x="194"
         y="34">30</tspan></text>
    <text
       xml:space="preserve"
       style="font-style:normal;font-weight:normal;font-size:16px;line-height:1.25;font-family:sans-serif;fill:#000000;fill-opacity:1;stroke:none"
       x="194"
       y="98"
       id="text1816"><tspan
         sodipodi:role="line"
         id="tspan1814"
         x="194"
         y="98">20</tspan></text>
    <text
       xml:space="preserve"
       style="font-style:normal;font-weight:normal;font-size:16px;line-height:1.25;font-family:sans-serif;fill:#000000;fill-opacity:1;stroke:none"
       x="194"
       y="162"
       id="text1820"><tspan
         sodipodi:role="line"
         id="tspan1818"
         x="194"
         y="162">10</tspan></text>
    <text
       xml:space="preserve"
       style="font-style:normal;font-weight:normal;font-size:16px;line-height:1.25;font-family:sans-serif;text-align:end;text-anchor:end;fill:#000000;fill-opacity:1;stroke:none"
       x="126"
       y="162"
       id="text1824"><tspan
         sodipodi:role="line"
         id="tspan1822"
         x="126"
         y="162">10</tspan></text>
    <text
       xml:space="preserve"
       style="font-style:normal;font-weight:normal;font-size:16px;line-height:1.25;font-family:sans-serif;text-align:end;text-anchor:end;fill:#000000;fill-opacity:1;stroke:none"
       x="126"
       y="98"
       id="text1828"><tspan
         sodipodi:role="line"
         id="tspan1826"
         x="126"
         y="98">20</tspan></text>
    <text
       xml:space="preserve"
       style="font-style:normal;font-weight:normal;font-size:16px;line-height:1.25;font-family:sans-serif;text-align:end;text-anchor:end;fill:#000000;fill-opacity:1;stroke:none"
       x="126"
       y="34"
       id="text1832"><tspan
         sodipodi:role="line"
         id="tspan1830"
         x="126"
         y="34">30</tspan></text>
    <text
       xml:space="preserve"
       style="font-style:normal;font-weight:normal;font-size:40px;line-height:1.25;font-family:sans-serif;text-align:center;text-anchor:middle;fill:#ffffff;fill-opacity:1;stroke:none;stroke-width:0.999999"
       x="160"
       y="272"
       id="text2235"><tspan
         sodipodi:role="line"
         id="tspan2233"
         style="font-size:40px;text-align:center;text-anchor:middle;fill:#ffffff;stroke-width:0.999999"
         x="160"
         y="272">21.8</tspan></text>
  </g>
</svg>
